<svg width="1472" height="777" xmlns="http://www.w3.org/2000/svg" xmlns:xlink="http://www.w3.org/1999/xlink" xml:space="preserve" overflow="hidden"><defs><clipPath id="clip0"><rect x="439" y="464" width="1472" height="777"/></clipPath></defs><g clip-path="url(#clip0)" transform="translate(-439 -464)"><path d="M491.174 826.467 504.485 803.563 504.379 801.769 505.568 801.699 1000.19 772.529 1060.06 702.536 1059.86 699.175 1063.1 698.984 1307.79 684.553 1347.28 640.282 1347.28 640.223 1347.34 640.219 1347.57 639.954 1347.66 640.201 1503.36 631.018 1493.11 457.087 1495.5 456.945 1489.76 359.531 1487.36 359.672 1474.11 134.97 1320.08 0 661.49 38.8396 592.938 116.189 592.808 115.703 382.155 128.126 382.138 127.829 382.017 128.193 304.924 59.868 0 77.8507 17.4621 373.95 60.0992 410.939 60.4599 410.918 60.4806 411.27 60.506 411.292 60.4822 411.297 71.5675 599.268 71.5724 599.351 71.4946 599.355 45.5338 630.201 56.8937 822.826 129.954 818.518 130.181 822.355 346.628 809.591 346.681 810.504 347.02 809.567 367.327 833.77 491.174 826.467ZM101.578 805.096 75.0435 805.096 75.0437 781.346 101.578 805.096Z" fill="#123123" fill-rule="evenodd" transform="matrix(0.998266 -0.0588717 -0.0588717 -0.998266 444.469 1318)"/></g></svg>