<svg width="2736" height="1445" xmlns="http://www.w3.org/2000/svg" xmlns:xlink="http://www.w3.org/1999/xlink" xml:space="preserve" overflow="hidden"><defs><clipPath id="clip0"><rect x="478" y="445" width="2736" height="1445"/></clipPath></defs><g clip-path="url(#clip0)" transform="translate(-478 -445)"><path d="M913.556 1537.18 938.314 1494.58 938.117 1491.24 940.328 1491.11 1860.3 1436.86 1971.65 1306.68 1971.28 1300.43 1977.3 1300.07 2432.42 1273.23 2505.87 1190.89 2505.86 1190.78 2505.97 1190.77 2506.41 1190.28 2506.56 1190.74 2796.17 1173.66 2777.09 850.156 2781.55 849.893 2770.87 668.707 2766.41 668.97 2741.76 251.037 2455.28 0 1230.33 72.2395 1102.83 216.105 1102.59 215.201 710.787 238.307 710.755 237.755 710.53 238.432 567.141 111.351 0 144.798 32.4785 695.526 111.781 764.323 112.452 764.284 112.491 764.939 112.538 764.98 112.493 764.989 133.112 1114.61 133.121 1114.76 132.976 1114.77 84.6903 1172.14 105.819 1530.41 241.708 1522.4 242.129 1529.53 644.708 1505.79 644.807 1507.49 645.438 1505.75 683.208 1550.77 913.556 1537.18ZM188.93 1497.43 139.577 1497.43 139.577 1453.26 188.93 1497.43Z" fill="#156082" fill-rule="evenodd" transform="matrix(0.998266 -0.0588717 -0.0588717 -0.998266 486.679 2033.75)"/></g></svg>